<svg width="38" height="40" viewBox="0 0 38 40" fill="none" xmlns="http://www.w3.org/2000/svg">
<path d="M36.7402 16.2676L21.1152 1.5254C21.1076 1.51873 21.1004 1.51155 21.0938 1.50391C20.5185 0.980734 19.7688 0.690826 18.9912 0.690826C18.2136 0.690826 17.4639 0.980734 16.8887 1.50391L16.8672 1.5254L1.25977 16.2676C0.941402 16.5603 0.687273 16.916 0.51346 17.312C0.339647 17.7081 0.249934 18.1359 0.25 18.5684V36.625C0.25 37.4538 0.57924 38.2487 1.16529 38.8347C1.75134 39.4208 2.5462 39.75 3.375 39.75H12.75C13.5788 39.75 14.3737 39.4208 14.9597 38.8347C15.5458 38.2487 15.875 37.4538 15.875 36.625V27.25H22.125V36.625C22.125 37.4538 22.4542 38.2487 23.0403 38.8347C23.6263 39.4208 24.4212 39.75 25.25 39.75H34.625C35.4538 39.75 36.2487 39.4208 36.8347 38.8347C37.4208 38.2487 37.75 37.4538 37.75 36.625V18.5684C37.7501 18.1359 37.6604 17.7081 37.4865 17.312C37.3127 16.916 37.0586 16.5603 36.7402 16.2676ZM34.625 36.625H25.25V27.25C25.25 26.4212 24.9208 25.6263 24.3347 25.0403C23.7487 24.4542 22.9538 24.125 22.125 24.125H15.875C15.0462 24.125 14.2513 24.4542 13.6653 25.0403C13.0792 25.6263 12.75 26.4212 12.75 27.25V36.625H3.375V18.5684L3.39648 18.5488L19 3.8125L34.6055 18.5449L34.627 18.5645L34.625 36.625Z" fill="#56CCF2"/>
</svg>
