<svg width="52" height="41" viewBox="0 0 52 41" fill="none" xmlns="http://www.w3.org/2000/svg">
<path d="M26.916 26.2205C27.6021 25.4757 28.3947 24.9082 29.1399 24.2935C30.5239 23.1349 31.9316 21.9881 33.3274 20.8413C33.4812 20.7231 33.635 20.593 33.8006 20.4985C34.3211 20.1911 34.8771 20.061 35.4803 20.1911C36.2611 20.3448 37.0536 20.5221 37.8343 20.6876C39.5969 21.0659 41.3713 21.4443 43.1338 21.8226C44.0565 22.0236 44.9792 22.2245 45.9137 22.4137C46.4696 22.5319 46.9665 22.7684 47.3568 23.2058C47.5579 23.4186 47.6999 23.6787 47.83 23.9388C48.5398 25.3929 49.2495 26.8353 49.9593 28.2894C50.3614 29.1052 50.7636 29.9209 51.1658 30.7367C51.2841 30.9849 51.3906 31.245 51.4261 31.5288C51.5562 32.4273 51.296 33.1839 50.6335 33.7987C50.4442 33.976 50.2432 34.1297 50.0421 34.2952C48.2322 35.7848 46.4223 37.2744 44.6243 38.7759C44.2931 39.0478 43.9382 39.2606 43.5124 39.367C43.1457 39.4498 42.7908 39.4616 42.4241 39.3906C40.7207 39.036 39.0291 38.6695 37.3375 38.303C35.7051 37.9483 34.0608 37.5936 32.4284 37.2508C32.2746 37.2153 32.1209 37.1917 31.9671 37.1562C31.1745 36.9671 30.5831 36.5178 30.2282 35.7848C29.9206 35.1701 29.6131 34.5435 29.3055 33.9287C28.513 32.309 27.7086 30.6775 26.916 29.0579C26.7977 28.8096 26.6913 28.5495 26.5966 28.2894C26.5493 28.1594 26.4902 28.0766 26.36 28.053C26.3009 28.053 26.2418 28.0293 26.1826 28.0057C25.7213 27.8284 25.2718 27.9348 24.8341 28.0884C24.7395 28.1239 24.6566 28.1712 24.633 28.2776C24.4437 29.0579 24.0652 29.7672 23.7576 30.512C23.0242 32.2854 22.2672 34.0469 21.5219 35.8085C21.4983 35.8558 21.4864 35.8912 21.4628 35.9385C21.1197 36.7897 20.4928 37.2981 19.6174 37.5464C16.2934 38.4567 12.9694 39.367 9.64542 40.2892C9.10128 40.4428 8.56896 40.4665 8.03665 40.2892C7.72909 40.1946 7.46885 40.0291 7.20861 39.8399C5.80094 38.7995 4.39326 37.771 2.98559 36.7306C2.34682 36.2577 1.70804 35.7966 1.08109 35.3356C0.71439 35.0637 0.41866 34.7326 0.229394 34.307C-0.0663358 33.645 -0.0781644 32.9711 0.205736 32.2972C0.477807 31.647 0.749878 30.9968 1.02195 30.3465C1.74353 28.6205 2.47694 26.9062 3.19852 25.1801C3.32864 24.8728 3.48242 24.589 3.70717 24.3526C4.06205 23.9624 4.51156 23.7378 5.00838 23.5959C5.71813 23.4068 6.43971 23.2058 7.14946 23.0048C9.77554 22.2836 12.3898 21.5625 15.0159 20.8413C15.5482 20.6994 16.0687 20.664 16.601 20.8295C16.9204 20.9241 17.1924 21.1014 17.4645 21.2906C18.6238 22.1418 19.7712 22.993 20.9305 23.8324C21.7822 24.459 22.6339 25.0856 23.4856 25.7121C23.6748 25.854 23.8523 25.9959 24.006 26.1614C24.148 26.3151 24.2899 26.3269 24.4674 26.2678C24.5738 26.2323 24.633 26.1614 24.633 26.055C24.633 25.8422 24.633 25.6176 24.6093 25.4048C24.6093 25.322 24.562 25.2392 24.4792 25.192C23.7813 24.8255 23.2017 24.3171 22.5747 23.856C20.9896 22.6856 19.4163 21.5152 17.843 20.333C17.7129 20.2384 17.5946 20.1438 17.4763 20.0374C17.0032 19.6 16.7311 19.0561 16.6956 18.4059C16.6719 18.0631 16.6601 17.732 16.6483 17.3892C16.6128 15.9587 16.5773 14.5282 16.5418 13.0977C16.5182 12.3528 16.5063 11.6199 16.4827 10.875C16.4472 9.82285 16.4235 8.75883 16.3881 7.70664C16.3881 7.4229 16.388 7.15099 16.459 6.87908C16.601 6.34707 16.9085 5.92146 17.3344 5.56679C18.2807 4.78651 19.2152 3.99441 20.1616 3.20231C21.1434 2.38657 22.1134 1.57082 23.0952 0.743254C23.1662 0.684142 23.249 0.613208 23.3199 0.554096C24.1835 -0.143425 25.4137 -0.190715 26.3364 0.459517C26.6794 0.707787 27.0225 0.96788 27.3655 1.21615C29.1044 2.50479 30.8315 3.79343 32.5704 5.08207C32.9016 5.31852 33.1855 5.60226 33.3747 5.95693C33.5522 6.27613 33.6586 6.61898 33.6705 6.9973C33.6941 7.82487 33.7296 8.65243 33.7533 9.46818C33.7769 10.343 33.8006 11.2179 33.8243 12.0927C33.8479 13.074 33.8834 14.0553 33.9071 15.0365C33.9307 15.8996 33.9662 16.7626 33.978 17.6256C33.978 17.8975 33.978 18.1813 33.9071 18.4532C33.7888 18.997 33.4812 19.4226 33.0672 19.7773C32.6059 20.1674 32.1327 20.5576 31.6713 20.9477C30.2518 22.13 28.8442 23.3122 27.4247 24.5063C27.1763 24.7191 26.9278 24.9319 26.6321 25.0856C26.5138 25.1447 26.4547 25.2511 26.4665 25.3811C26.4665 25.5703 26.4783 25.7713 26.502 25.9604C26.502 26.0786 26.573 26.1614 26.7031 26.185C26.7859 26.1969 26.8687 26.2087 26.9633 26.2323L26.916 26.2205ZM28.8205 28.5613C28.7969 28.7269 28.8678 28.8214 28.9152 28.916C29.8733 30.8785 30.8433 32.8292 31.8015 34.8036C31.9552 35.1109 32.1682 35.3001 32.5112 35.3592C32.9607 35.442 33.4102 35.5484 33.8597 35.643C36.7697 36.2695 39.6679 36.8843 42.5779 37.5227C42.9209 37.5936 43.2048 37.5464 43.4887 37.3099C45.405 35.7139 47.3213 34.1297 49.2377 32.5573C49.7227 32.1672 49.6635 31.848 49.4743 31.446C48.3741 29.2234 47.2859 27.0008 46.1976 24.7782C46.1621 24.7072 46.1148 24.6245 46.0793 24.5536C45.9846 24.3999 45.8545 24.3053 45.6889 24.2462C45.5943 24.2225 45.4997 24.1989 45.405 24.1752C44.1038 23.8915 42.7908 23.6196 41.4896 23.3358C39.5023 22.9102 37.5031 22.4846 35.5158 22.0472C34.9244 21.9172 34.8297 21.9644 34.3921 22.3309C32.8543 23.6078 31.3046 24.8846 29.755 26.1614C29.6012 26.2796 29.4593 26.4097 29.3173 26.5397C29.2819 26.5752 29.27 26.6343 29.2345 26.7052C29.5066 26.8234 29.7668 26.8471 30.0271 26.9062C31.9198 27.32 33.8243 27.7219 35.7169 28.1357C36.7816 28.3604 37.858 28.585 38.9226 28.8214C39.0882 28.8569 39.2184 28.8333 39.3603 28.7387C39.656 28.514 39.9873 28.4313 40.3421 28.4313C41.4659 28.4313 42.1283 29.519 41.9509 30.3702C41.7498 31.3751 40.7088 32.0135 39.656 31.576C39.3485 31.446 39.0882 31.2332 38.9345 30.9376C38.828 30.7367 38.6624 30.6421 38.4495 30.6066C38.0828 30.5357 37.7161 30.4529 37.3493 30.3702C35.9298 30.0628 34.4985 29.7554 33.079 29.448C31.7423 29.1643 30.3938 28.8687 29.0571 28.585C28.9861 28.5732 28.9151 28.585 28.8323 28.5613H28.8205ZM21.8768 26.8589C21.8295 26.7289 21.6994 26.6816 21.5929 26.5988C20.3153 25.653 19.026 24.7191 17.7484 23.7733C17.2634 23.4186 16.7902 23.0758 16.3052 22.7211C16.0805 22.5556 15.8557 22.4965 15.5837 22.5792C15.5245 22.591 15.4654 22.6147 15.4062 22.6265C12.4489 23.4422 9.47981 24.258 6.52252 25.0619C6.17947 25.1565 5.84825 25.2629 5.50521 25.3456C5.16216 25.4284 4.94924 25.6176 4.83094 25.9486V25.9841C4.08571 27.7101 3.36413 29.4244 2.63072 31.1504C2.3823 31.7416 2.12206 32.3327 1.88548 32.9238C1.7317 33.3139 1.80267 33.574 2.12206 33.8223C2.15755 33.8578 2.20487 33.8814 2.24035 33.9051C4.21583 35.3592 6.20313 36.8015 8.16677 38.2675C8.49799 38.5158 8.80555 38.5749 9.21957 38.4567C11.9285 37.7 14.6492 36.9552 17.358 36.2104C17.9377 36.0449 18.5291 35.8794 19.1088 35.7257C19.4163 35.643 19.6411 35.4893 19.7357 35.1819C19.7594 35.1109 19.7949 35.0518 19.8185 34.9809C20.6111 33.1011 21.4036 31.2214 22.1962 29.3416C22.2553 29.2116 22.3145 29.0697 22.3618 28.9397C22.3854 28.8924 22.3736 28.8333 22.3736 28.7741C22.1962 28.715 22.0661 28.786 21.9241 28.8214C18.9195 29.649 15.9149 30.4766 12.8984 31.2923C12.6619 31.3632 12.4726 31.4578 12.3898 31.6943C12.3661 31.7652 12.3188 31.8243 12.2715 31.8716C11.751 32.5573 10.781 32.7228 10.0594 32.2499C9.33786 31.777 9.10128 30.8312 9.52713 30.0628C9.94115 29.318 10.923 28.9515 11.7628 29.4362C11.9994 29.5662 12.2005 29.6135 12.4489 29.5071C12.4844 29.4953 12.5199 29.4953 12.5554 29.4835C15.0159 28.8096 17.4645 28.1357 19.925 27.45C20.4928 27.2963 21.0724 27.1308 21.6402 26.9653C21.723 26.9417 21.8176 26.9417 21.8413 26.8234L21.8768 26.8589ZM24.4201 22.8984C24.5502 22.792 24.5265 22.662 24.5147 22.5437C24.4792 21.6689 24.4437 20.794 24.4201 19.9192C24.3846 18.9379 24.3609 17.9567 24.3373 16.9754C24.3018 15.6986 24.2663 14.4218 24.2426 13.1568C24.2426 12.8848 24.1716 12.6839 23.9587 12.4947C23.4501 12.0218 23.3199 11.4189 23.5447 10.7568C23.8404 9.90561 24.6685 9.5864 25.2954 9.66916C26.1353 9.78738 26.7504 10.4613 26.7622 11.277C26.7622 11.7381 26.6203 12.14 26.2891 12.4592C26.1116 12.6366 26.0525 12.8139 26.0761 13.0504C26.088 13.1804 26.0998 13.3223 26.0998 13.4523C26.1235 14.339 26.1471 15.2257 26.1708 16.1124C26.1944 17.07 26.2181 18.0276 26.2418 18.9852C26.2772 20.1438 26.3009 21.2906 26.3364 22.4492C26.3364 22.5319 26.3364 22.6147 26.36 22.6974C26.36 22.7447 26.4074 22.792 26.4429 22.8511C26.6085 22.792 26.7031 22.6856 26.8214 22.591C28.028 21.5743 29.2464 20.5694 30.4529 19.5527C30.8906 19.1862 31.3283 18.8079 31.766 18.4532C32.0262 18.2404 32.1445 17.9921 32.1209 17.6611C32.1209 17.5074 32.1209 17.3419 32.109 17.1882C32.0854 16.5616 32.0735 15.9232 32.0499 15.2966C32.0499 15.202 32.0499 15.1075 32.0499 15.0011C32.0144 13.807 31.9671 12.6248 31.9316 11.4307C31.8961 10.0829 31.8724 8.73519 31.837 7.38744C31.837 7.32833 31.837 7.26921 31.837 7.2101C31.8133 6.95001 31.7187 6.74903 31.4939 6.59534C31.4466 6.55987 31.3993 6.5244 31.352 6.48894C29.5539 5.15301 27.7677 3.81708 25.9697 2.49297C25.7331 2.31563 25.5083 2.1383 25.2599 1.97278C24.9879 1.78362 24.7158 1.79545 24.4437 1.98461C24.3727 2.03189 24.3136 2.09101 24.2426 2.15012C23.9232 2.41021 23.6038 2.68213 23.2963 2.94222C21.7348 4.2545 20.1734 5.56679 18.6001 6.86725C18.2925 7.12735 18.1388 7.41108 18.1861 7.81304C18.1861 7.86033 18.1861 7.90762 18.1861 7.95491C18.2216 9.12533 18.2689 10.2839 18.3044 11.4543C18.3399 12.542 18.3635 13.6415 18.3872 14.7291C18.4108 15.805 18.4463 16.8926 18.47 17.9685C18.47 17.9921 18.47 18.0158 18.47 18.0394C18.47 18.3823 18.6001 18.6305 18.884 18.8433C20.6466 20.1438 22.3973 21.4443 24.148 22.7565C24.2308 22.8157 24.3254 22.8748 24.4082 22.9221L24.4201 22.8984Z" fill="white"/>
</svg>
