<svg width="39" height="41" viewBox="0 0 39 41" fill="none" xmlns="http://www.w3.org/2000/svg">
<path d="M37.8616 29.8771C36.7776 28.0099 35.1663 22.7267 35.1663 15.8263C35.1663 11.6823 33.5201 7.70799 30.5898 4.77774C27.6595 1.84748 23.6853 0.201279 19.5413 0.201279C15.3972 0.201279 11.423 1.84748 8.49271 4.77774C5.56246 7.70799 3.91625 11.6823 3.91625 15.8263C3.91625 22.7286 2.30297 28.0099 1.21899 29.8771C0.942173 30.3518 0.795423 30.891 0.793536 31.4406C0.79165 31.9901 0.934694 32.5303 1.20824 33.0069C1.48179 33.4835 1.87618 33.8795 2.35162 34.1551C2.82706 34.4306 3.36675 34.5759 3.91625 34.5763H11.887C12.2475 36.3403 13.2061 37.9256 14.6009 39.0641C15.9956 40.2027 17.7408 40.8245 19.5413 40.8245C21.3417 40.8245 23.0869 40.2027 24.4816 39.0641C25.8764 37.9256 26.8351 36.3403 27.1956 34.5763H35.1663C35.7156 34.5755 36.255 34.43 36.7302 34.1543C37.2054 33.8787 37.5995 33.4826 37.8728 33.0061C38.1461 32.5296 38.289 31.9894 38.287 31.4401C38.285 30.8907 38.1383 30.3516 37.8616 29.8771ZM19.5413 37.7013C18.5722 37.701 17.627 37.4003 16.8358 36.8407C16.0446 36.2811 15.4463 35.49 15.1233 34.5763H23.9592C23.6362 35.49 23.0379 36.2811 22.2467 36.8407C21.4555 37.4003 20.5104 37.701 19.5413 37.7013ZM3.91625 31.4513C5.42016 28.8653 7.04125 22.8732 7.04125 15.8263C7.04125 12.5111 8.35822 9.33165 10.7024 6.98744C13.0466 4.64324 16.226 3.32628 19.5413 3.32628C22.8565 3.32628 26.0359 4.64324 28.3801 6.98744C30.7243 9.33165 32.0413 12.5111 32.0413 15.8263C32.0413 22.8673 33.6584 28.8595 35.1663 31.4513H3.91625Z" fill="#56CCF2"/>
</svg>
